<svg xmlns="http://www.w3.org/2000/svg" width="342.2" height="252.414" viewBox="0 0 342.2 252.414">
  <g id="undraw_feeling_blue_4b7q_1_" data-name="undraw_feeling_blue_4b7q (1)" transform="translate(0.009 -0.004)">
    <path id="Trazado_4281" data-name="Trazado 4281" d="M61.83,433.31c5.4,20.883,16.833,38.935,34.894,47.686,37.548,18.186,122.227,8.807,185.427-1.96,32.692-5.568,61.426-20.936,82.3-42.562Z" transform="translate(-58.153 -312.29)" fill="#6647f4" opacity="0.1"/>
    <path id="Trazado_4282" data-name="Trazado 4282" d="M412.583,67.011H377.906a2.725,2.725,0,1,1,0-5.422h6a2.725,2.725,0,1,1,0-5.422h-4.281a2.725,2.725,0,1,1,0-5.422h18.1a51.865,51.865,0,0,0-14.12-3.521c-49.353-5.733-66.973-1.941-73.188,1.957a72.956,72.956,0,0,1-25.366,10.06c-30.449,5.683-87.392,12.521-139-2.178C120.392,49.743,101.326,62.1,89.9,82.746H418.605a44.621,44.621,0,0,0-4.072-16.394,3.164,3.164,0,0,1-1.951.66Z" transform="translate(-77.491 -44.29)" fill="#6647f4" opacity="0.1"/>
    <path id="Trazado_4283" data-name="Trazado 4283" d="M50.727,293.19a125.221,125.221,0,0,0,1.344,36.434L356.522,339.7a129.165,129.165,0,0,0,21.154-29.186Zm120.414,25.991h-5.995a2.725,2.725,0,1,1,0,5.422H130.47a2.725,2.725,0,1,1,0-5.422h6a2.725,2.725,0,1,1,0-5.422h-4.284a2.725,2.725,0,1,1,0-5.422h34.676a2.725,2.725,0,1,1,0,5.422h4.281a2.725,2.725,0,1,1,0,5.422Z" transform="translate(-49.99 -215.759)" fill="#6647f4" opacity="0.1"/>
    <path id="Trazado_4284" data-name="Trazado 4284" d="M392.866,168.5,60.481,175.81a110.279,110.279,0,0,0-7.961,31.055H387.043a117.99,117.99,0,0,0,4.828-19.794A84.736,84.736,0,0,0,392.866,168.5Zm-272.86,23.969h-5.995a2.726,2.726,0,1,1,0,5.425H79.335a2.726,2.726,0,1,1,0-5.425h6a2.725,2.725,0,1,1,0-5.422H81.049a2.725,2.725,0,1,1,0-5.422h34.676a2.725,2.725,0,1,1,0,5.422h4.28a2.725,2.725,0,1,1,0,5.422Z" transform="translate(-51.739 -129.857)" fill="#6647f4" opacity="0.1"/>
    <ellipse id="Elipse_17" data-name="Elipse 17" cx="139.048" cy="12.792" rx="139.048" ry="12.792" transform="translate(30.511 217.4)" fill="#6647f4" opacity="0.1"/>
    <ellipse id="Elipse_20" data-name="Elipse 20" cx="2.8" cy="1.898" rx="2.8" ry="1.898" transform="translate(249.902 129.923)" fill="#575a89"/>
    <circle id="Elipse_21" data-name="Elipse 21" cx="95.969" cy="95.969" r="95.969" transform="translate(65.474 45.511)" fill="#6647f4"/>
    <path id="Trazado_4330" data-name="Trazado 4330" d="M507.82,562.787c0,15.15-23.816,1.294-49.35,1.294s-51.36,13.283-51.36-1.867c0-8.639,8.231-20.653,20.04-29.379h0c8.9-6.576,19.822-11.286,30.8-11.286,11.286,0,22.342,5.1,31.161,12.1C500.239,542.473,507.82,554.332,507.82,562.787Z" transform="translate(-296.022 -373.08)" fill="#444053"/>
    <path id="Trazado_4331" data-name="Trazado 4331" d="M533.485,533.628c-13.573-2.044-38.12-4.536-61.955-.812,8.9-6.576,19.822-11.286,30.8-11.286C513.61,521.53,524.666,526.629,533.485,533.628Z" transform="translate(-340.402 -373.066)" fill="#f6f8fb"/>
    <path id="Trazado_4332" data-name="Trazado 4332" d="M343.609,281.31S314.7,299.791,314.937,328.7,343.609,281.31,343.609,281.31Z" transform="translate(-232.522 -207.574)" opacity="0.05"/>
    <path id="Trazado_4333" data-name="Trazado 4333" d="M825.633,113.445s-26.193-1.577-23.1,16.777a4.461,4.461,0,0,0,2.327,4.716s.047-1.359,2.685-.9a12.131,12.131,0,0,0,2.846.137,5.911,5.911,0,0,0,3.478-1.437h0s7.363-3.039,10.228-15.075c0,0,2.119-2.626,2.035-3.3l-4.42,1.885s1.509,3.189.311,5.839c0,0-.143-5.721-.992-5.6-.171.028-2.3,1.1-2.3,1.1s2.6,5.556.622,9.591c0,0,.743-6.844-1.45-9.189l-3.111,1.817s3.036,5.736.977,10.418c0,0,.529-7.18-1.63-9.976l-2.822,2.2s2.853,5.655,1.114,9.538c0,0-.227-8.359-1.723-8.99a17.259,17.259,0,0,0-2.843,3.07s1.954,4.1.744,6.268c0,0-.744-5.568-1.353-5.6,0,0-2.458,3.689-2.716,6.222a13.448,13.448,0,0,1,2.119-6.573,7.38,7.38,0,0,0-3.761,1.95s.383-2.61,4.355-2.837c0,0,2.031-2.8,2.576-2.968,0,0-3.966-.333-6.371.734,0,0,2.115-2.461,7.1-1.344l2.8-2.271s-5.22-.715-7.435.075c0,0,2.548-2.178,8.185-.591l3.033-1.814a27.81,27.81,0,0,0-7.105-.622s2.8-1.509,7.992.128l2.178-.974s-3.263-.641-4.218-.74-1-.367-1-.367a11.308,11.308,0,0,1,6.138.712S825.711,113.734,825.633,113.445Z" transform="translate(-568.259 -91.906)" fill="#6647f4"/>
    <path id="Trazado_4334" data-name="Trazado 4334" d="M767.631,87.256s-11.821-.715-10.44,7.578a2.023,2.023,0,0,0,1.051,2.131s.019-.622,1.213-.4a5.617,5.617,0,0,0,1.285.062,2.7,2.7,0,0,0,1.574-.65h0s3.326-1.375,4.62-6.813c0,0,.958-1.185.933-1.49l-2,.852a3.572,3.572,0,0,1,.146,2.638s-.065-2.585-.448-2.523c-.078,0-1.039.5-1.039.5s1.176,2.51.289,4.333c0,0,.336-3.092-.653-4.153l-1.406.821s1.372,2.594.442,4.71c0,0,.236-3.245-.737-4.508l-1.275.992s1.288,2.554.5,4.309c0,0-.1-3.777-.781-4.063a7.8,7.8,0,0,0-1.285,1.387s.883,1.867.336,2.834c0,0-.336-2.517-.622-2.526a8.342,8.342,0,0,0-1.226,2.8,6.06,6.06,0,0,1,.955-2.971,3.331,3.331,0,0,0-1.7.88s.171-1.179,1.972-1.282a7.761,7.761,0,0,1,1.163-1.341,7.294,7.294,0,0,0-2.878.333s.955-1.114,3.207-.622l1.244-1.023a10.8,10.8,0,0,0-3.36.031s1.151-.983,3.7-.264l1.369-.821a12.448,12.448,0,0,0-3.21-.277,4.923,4.923,0,0,1,3.612.059l.98-.442s-1.475-.289-1.9-.333-.457-.165-.457-.165a5.1,5.1,0,0,1,2.769.311A12.528,12.528,0,0,0,767.631,87.256Z" transform="translate(-537.122 -73.876)" fill="#6647f4"/>
    <ellipse id="Elipse_22" data-name="Elipse 22" cx="8.377" cy="1.415" rx="8.377" ry="1.415" transform="translate(325.436 224.265)" fill="#6647f4" opacity="0.1"/>
    <ellipse id="Elipse_23" data-name="Elipse 23" cx="8.377" cy="1.415" rx="8.377" ry="1.415" transform="translate(6.166 247.811)" fill="#6647f4" opacity="0.1"/>
    <ellipse id="Elipse_24" data-name="Elipse 24" cx="8.377" cy="1.415" rx="8.377" ry="1.415" transform="translate(54.797 249.588)" fill="#6647f4" opacity="0.1"/>
    <ellipse id="Elipse_25" data-name="Elipse 25" cx="12.509" cy="2.115" rx="12.509" ry="2.115" transform="translate(302.97 238.734)" fill="#6647f4"/>
    <path id="Trazado_4335" data-name="Trazado 4335" d="M1055.143,794.632a3.647,3.647,0,0,0,1.194-1.8A1.6,1.6,0,0,0,1055.5,791c-.765-.292-1.583.24-2.2.775a2.952,2.952,0,0,1-2.143,1.033,3.257,3.257,0,0,0,1.008-3.052,1.283,1.283,0,0,0-.28-.622c-.426-.454-1.194-.261-1.7.1-1.618,1.139-2.069,3.335-2.078,5.313a9.992,9.992,0,0,1-.028-2.178,2.249,2.249,0,0,0-.821-1.938,2.487,2.487,0,0,0-1.244-.292,2.589,2.589,0,0,0-2.035.576,2,2,0,0,0,.081,2.489,8.075,8.075,0,0,0,2.1,1.686,4.667,4.667,0,0,1,1.506,1.434,1.5,1.5,0,0,1,.112.258h4.557a12.692,12.692,0,0,0,2.809-1.944Z" transform="translate(-734.494 -557.239)" fill="#6647f4"/>
    <path id="Trazado_4336" data-name="Trazado 4336" d="M98.9,723.55s1.708,2.234-.79,5.6-4.557,6.222-3.733,8.325c0,0,3.767-6.265,6.844-6.356S102.276,727.317,98.9,723.55Z" transform="translate(-80.451 -512.241)" fill="#6647f4"/>
    <path id="Trazado_4337" data-name="Trazado 4337" d="M99.127,723.55a2.8,2.8,0,0,1,.348.7c2.993,3.515,4.585,6.8,1.711,6.878-2.682.078-5.911,4.869-6.666,6.079a2.9,2.9,0,0,0,.093.277s3.767-6.265,6.844-6.355S102.5,727.317,99.127,723.55Z" transform="translate(-80.674 -512.241)" opacity="0.1"/>
    <path id="Trazado_4338" data-name="Trazado 4338" d="M118.665,731.572c0,.787-.09,1.425-.2,1.425s-.2-.622-.2-1.425.109-.417.221-.417S118.665,730.785,118.665,731.572Z" transform="translate(-97.035 -517.416)" fill="#ffd037"/>
    <path id="Trazado_4339" data-name="Trazado 4339" d="M120.016,734.529c-.691.376-1.291.6-1.344.507s.467-.476,1.157-.852.417-.1.47,0S120.719,734.153,120.016,734.529Z" transform="translate(-97.31 -519.434)" fill="#ffd037"/>
    <path id="Trazado_4340" data-name="Trazado 4340" d="M71.808,723.55s-1.708,2.234.787,5.6,4.557,6.222,3.733,8.325c0,0-3.77-6.265-6.844-6.356S68.433,727.317,71.808,723.55Z" transform="translate(-62.382 -512.241)" fill="#6647f4"/>
    <path id="Trazado_4341" data-name="Trazado 4341" d="M71.8,723.55a2.685,2.685,0,0,0-.348.7c-2.993,3.515-4.588,6.8-1.711,6.878,2.678.078,5.911,4.869,6.663,6.079a2.881,2.881,0,0,1-.09.277s-3.77-6.265-6.844-6.355S68.423,727.317,71.8,723.55Z" transform="translate(-62.372 -512.241)" opacity="0.1"/>
    <path id="Trazado_4342" data-name="Trazado 4342" d="M70.1,731.572c0,.787.087,1.425.2,1.425s.2-.622.2-1.425-.109-.417-.218-.417S70.1,730.785,70.1,731.572Z" transform="translate(-63.85 -517.416)" fill="#ffd037"/>
    <path id="Trazado_4343" data-name="Trazado 4343" d="M65.663,734.529c.691.376,1.294.6,1.347.507s-.467-.476-1.157-.852-.42-.1-.47,0S64.973,734.153,65.663,734.529Z" transform="translate(-60.505 -519.434)" fill="#ffd037"/>
    <path id="Trazado_4344" data-name="Trazado 4344" d="M71.85,761.672s4.778-.146,6.222-1.173,7.351-2.249,7.709-.622,7.18,8.181,1.786,8.225-12.534-.843-13.971-1.717S71.85,761.672,71.85,761.672Z" transform="translate(-65.056 -536.722)" fill="#a8a8a8"/>
    <path id="Trazado_4345" data-name="Trazado 4345" d="M87.656,773.259c-5.394.044-12.534-.843-13.971-1.717-1.1-.666-1.531-3.058-1.677-4.162H71.85s.311,3.854,1.739,4.729,8.577,1.761,13.971,1.717c1.555,0,2.094-.569,2.066-1.387C89.407,772.939,88.816,773.25,87.656,773.259Z" transform="translate(-65.056 -542.436)" opacity="0.2"/>
    <path id="Trazado_4346" data-name="Trazado 4346" d="M409.6,445.357c1.826-.1,10.421-.75,15.881-3.864a6.187,6.187,0,0,1,2.884-.849c1.736-.05,3.733.675,2.454,4.732-2.072,6.635-14.1,14.1-21.567,13.688-7.18-.4-15.7-3.291-21.322-13.464a6.222,6.222,0,0,1-.768-3.2c.065-2.053.812-4.626,4.666-1.758,5.208,3.873,15.088,4.607,17.069,4.716a6.556,6.556,0,0,0,.7,0Z" transform="translate(-282.278 -316.46)" fill="#444053"/>
    <path id="Trazado_4347" data-name="Trazado 4347" d="M631.6,445.357c1.826-.1,10.421-.75,15.881-3.864a6.187,6.187,0,0,1,2.884-.849c1.736-.05,3.733.675,2.454,4.732-2.072,6.635-14.1,14.1-21.567,13.688-7.18-.4-15.7-3.291-21.322-13.464a6.221,6.221,0,0,1-.768-3.2c.065-2.053.812-4.626,4.666-1.758,5.208,3.873,15.087,4.607,17.069,4.716a6.555,6.555,0,0,0,.7,0Z" transform="translate(-435.218 -316.46)" fill="#444053"/>
  </g>
</svg>
